<svg width="43" height="38" viewBox="0 0 43 38" fill="none" xmlns="http://www.w3.org/2000/svg">
<path d="M37.6667 0.333252H4.33341C3.22835 0.333252 2.16854 0.772239 1.38714 1.55364C0.605735 2.33504 0.166748 3.39485 0.166748 4.49992V29.4999C0.166748 30.605 0.605735 31.6648 1.38714 32.4462C2.16854 33.2276 3.22835 33.6666 4.33341 33.6666H23.2709C23.1459 32.9791 23.0834 32.2916 23.0834 31.5833C23.0834 24.6874 28.6876 19.0833 35.5834 19.0833C37.7917 19.0833 39.9376 19.6666 41.8334 20.7708V4.49992C41.8334 2.18742 39.9792 0.333252 37.6667 0.333252ZM37.6667 14.9166H4.33341V8.66658H37.6667V14.9166ZM32.9792 37.8333L27.2501 31.5833L29.6667 29.1666L32.9792 32.4791L40.4584 24.9999L42.8751 27.9374L32.9792 37.8333Z" fill="white"/>
</svg>
