<svg width="45" height="36" viewBox="0 0 45 36" fill="none" xmlns="http://www.w3.org/2000/svg">
<path d="M44.1391 10.5281H40.2856C40.0728 10.5307 39.8686 10.6129 39.7133 10.7584C38.4827 8.79386 37.2091 7.2212 36.2208 6.23292C35.2325 5.24636 32.8177 4.54339 29.8064 4.12229V0.645264C27.1596 0.304951 24.4817 0.215576 22.4725 0.215576C20.4788 0.215576 17.8267 0.301513 15.1971 0.638388V4.1137C12.1549 4.53308 9.71768 5.23776 8.72081 6.23292C7.73768 7.21948 6.47268 8.78183 5.24893 10.7326C5.10014 10.6056 4.91171 10.5345 4.71612 10.5315H0.860962C0.388306 10.5315 0.00158691 10.92 0.00158691 11.3909V13.1268C0.00158691 13.5978 0.379712 14.055 0.843774 14.146L3.18127 14.5929C1.16346 19.0926 -0.0259131 24.6923 1.84409 30.3023V33.6315C1.84409 34.582 2.08471 35.3503 2.38206 35.3503H6.78549C7.08284 35.3503 7.32346 34.582 7.32346 33.6315V30.909C11.2732 31.2871 16.8625 31.6996 22.4691 31.6996C28.0241 31.6996 33.6753 31.294 37.6181 30.9193V33.6315C37.6181 34.582 37.8588 35.3503 38.1544 35.3503H42.5578C42.8535 35.3503 43.0941 34.582 43.0941 33.6315L43.0906 30.3006C44.9589 24.6975 43.773 19.1012 41.7586 14.6015L44.1511 14.146C44.3846 14.093 44.594 13.964 44.7463 13.7792C44.8987 13.5945 44.9856 13.3645 44.9933 13.1251V11.3892C44.9938 11.2766 44.972 11.1651 44.9293 11.061C44.8866 10.9568 44.8238 10.8621 44.7444 10.7823C44.6651 10.7025 44.5708 10.6391 44.4669 10.5958C44.363 10.5524 44.2516 10.53 44.1391 10.5298V10.5281ZM7.21518 24.4964C6.4071 24.4695 5.6411 24.1296 5.07896 23.5485C4.51683 22.9674 4.20257 22.1905 4.20257 21.382C4.20257 20.5735 4.51683 19.7966 5.07896 19.2155C5.6411 18.6343 6.4071 18.2945 7.21518 18.2676C8.02325 18.2947 8.78916 18.6348 9.35114 19.2161C9.91312 19.7973 10.2272 20.5743 10.2269 21.3828C10.2267 22.1913 9.91224 22.9681 9.34994 23.5491C8.78764 24.1301 8.02155 24.4697 7.21346 24.4964H7.21518ZM4.59581 15.576C6.24581 11.8 8.54377 8.8437 9.93596 7.44808C10.9397 6.44261 15.6766 5.37355 22.4691 5.37355C29.2633 5.37355 33.9985 6.44433 35.0039 7.4498C36.3961 8.84198 38.6924 11.7982 40.3424 15.576C36.678 15.9817 29.54 15.0432 22.4708 15.0432C15.4016 15.0432 8.26362 15.9817 4.59581 15.576ZM37.723 24.4964C36.9149 24.4695 36.1489 24.1296 35.5868 23.5485C35.0246 22.9674 34.7104 22.1905 34.7104 21.382C34.7104 20.5735 35.0246 19.7966 35.5868 19.2155C36.1489 18.6343 36.9149 18.2945 37.723 18.2676C38.5311 18.2947 39.297 18.6348 39.859 19.2161C40.4209 19.7973 40.735 20.5743 40.7347 21.3828C40.7345 22.1913 40.4201 22.9681 39.8578 23.5491C39.2955 24.1301 38.5294 24.4697 37.7213 24.4964H37.723Z" fill="white"/>
</svg>
