<svg width="46" height="45" viewBox="0 0 46 45" fill="none" xmlns="http://www.w3.org/2000/svg">
<path d="M0.224609 18.7863C0.0898438 19.8645 0 20.9605 0 22.0746C0 31.8676 5.36367 40.3937 13.3059 44.9129L14.7883 41.7863V20.4305L13.1441 18.7863H0.224609ZM46 20.4305C46 18.7863 44.3559 17.1422 42.7117 17.1422H29.5676C30.3852 13.8539 31.2117 10.5746 31.2117 8.93047C31.2117 5.64219 29.5676 2.36289 28.75 1.53633C28.732 1.51836 27.9324 0.71875 26.2883 0.71875C23.8266 0.71875 23.8266 3.18047 23.8266 3.18047C23.8266 3.22539 23.009 7.28633 23.009 8.93047C23.009 10.5746 19.7207 17.1422 18.0766 18.7863L16.4324 19.6039V42.6039L18.0766 43.4215H36.1441C39.4324 43.4215 41.0766 41.7773 41.0766 40.1332C41.0766 38.4891 39.4324 36.8449 37.7883 36.8449C41.0766 36.8449 42.7207 35.2008 42.7207 33.5566C42.7207 31.9125 41.0766 30.2684 39.4324 30.2684C42.7207 30.2684 44.3648 28.6242 44.3648 26.9801C44.3648 25.3359 42.7207 23.6918 41.0766 23.6918C44.3559 23.7188 46 22.0746 46 20.4305Z" fill="white"/>
</svg>
