<?xml version="1.0" standalone="no"?>
<!DOCTYPE svg PUBLIC "-//W3C//DTD SVG 20010904//EN"
 "http://www.w3.org/TR/2001/REC-SVG-20010904/DTD/svg10.dtd">
<svg version="1.0" xmlns="http://www.w3.org/2000/svg"
 width="700.000000pt" height="700.000000pt" viewBox="0 0 700.000000 700.000000"
 preserveAspectRatio="xMidYMid meet">
<metadata>
Created by potrace 1.11, written by Peter Selinger 2001-2013
</metadata>
<g transform="translate(0.000000,700.000000) scale(0.100000,-0.100000)"
fill="#000000" stroke="none">
<path d="M3033 6981 c-200 -57 -350 -214 -396 -416 -10 -45 -13 -168 -12 -502
0 -244 -2 -443 -5 -443 -3 0 -144 141 -315 312 -298 299 -364 356 -451 393
-157 66 -359 48 -503 -45 -80 -52 -579 -551 -630 -630 -58 -90 -80 -162 -85
-275 -5 -119 37 -255 104 -343 12 -15 160 -167 330 -338 171 -170 310 -312
310 -315 0 -2 -192 -4 -428 -5 -235 0 -453 -3 -484 -7 -211 -25 -395 -193
-452 -412 -22 -87 -23 -809 0 -904 46 -197 198 -355 394 -407 54 -14 116 -17
368 -18 245 -1 299 -3 285 -14 -163 -115 -267 -277 -290 -454 -3 -29 -7 -236
-7 -460 0 -402 0 -408 -21 -414 -69 -21 -157 -121 -185 -208 -13 -41 -17 -239
-5 -278 33 -107 110 -193 202 -228 40 -15 84 -22 142 -23 l85 -2 2 -145 c2
-130 4 -151 26 -200 32 -70 88 -129 158 -166 l55 -29 305 0 305 0 55 28 c68
35 94 58 135 122 40 62 54 129 54 267 0 60 2 112 5 117 4 5 121 8 274 8 l267
-2 1 -55 c2 -90 3 -94 30 -125 l26 -30 804 -3 c882 -3 846 -5 875 57 9 17 15
57 14 95 l0 66 272 -1 c150 0 273 -3 273 -7 1 -4 1 -60 2 -125 0 -191 31 -272
130 -347 88 -66 105 -69 421 -69 l284 0 68 34 c80 41 96 54 135 114 43 64 52
109 55 261 l1 135 105 7 c77 4 115 12 147 28 81 40 147 122 177 220 9 27 9
220 1 259 -17 79 -94 176 -172 216 l-40 20 0 405 c0 291 -4 424 -13 470 -19
92 -89 234 -151 303 -49 54 -156 139 -190 149 -8 2 124 4 294 4 191 -1 335 3
377 11 187 31 350 170 418 356 l26 72 2 415 c3 351 0 424 -13 475 -55 208
-221 367 -425 407 -48 9 -188 13 -503 13 -240 0 -436 2 -436 5 0 2 148 153
328 335 290 291 331 338 359 396 86 181 76 378 -28 540 -47 72 -549 577 -623
626 -172 114 -406 117 -586 8 -35 -21 -172 -150 -370 -349 -173 -174 -317
-316 -320 -316 -3 0 -5 199 -6 443 0 243 -3 458 -7 477 -38 219 -202 394 -418
444 -52 13 -139 15 -459 15 -343 -1 -403 -3 -457 -18z m877 -212 c56 -13 140
-67 174 -112 14 -18 35 -55 48 -83 22 -48 22 -55 24 -529 1 -534 0 -521 70
-589 63 -61 154 -78 237 -43 25 11 147 125 369 347 382 380 388 385 523 385
137 0 152 -11 464 -322 316 -316 324 -328 324 -473 1 -130 -6 -140 -378 -511
-209 -208 -332 -339 -345 -366 -56 -112 -13 -235 101 -294 44 -22 47 -22 524
-23 l480 -2 56 -26 c99 -45 159 -116 191 -223 5 -16 8 -200 8 -407 0 -414 -2
-429 -62 -515 -34 -51 -77 -85 -144 -115 -47 -21 -61 -22 -349 -23 -165 -1
-305 0 -311 2 -6 2 -9 25 -8 53 3 46 1 50 -19 51 -12 0 -102 1 -199 1 l-177 1
-10 26 c-6 14 -60 172 -121 350 -60 178 -121 348 -134 377 -99 215 -298 374
-541 430 -39 9 -125 18 -195 19 -69 2 -127 4 -130 4 -3 1 -5 47 -5 104 1 125
-7 180 -35 239 -39 83 -86 119 -375 283 -22 13 -107 62 -190 109 -170 98 -203
110 -296 104 -80 -4 -119 -23 -476 -231 -249 -145 -287 -172 -326 -234 -39
-63 -50 -110 -51 -239 -1 -68 -5 -126 -8 -130 -4 -3 -63 -8 -131 -9 -68 -1
-132 -5 -143 -8 -10 -4 -34 -9 -52 -12 -50 -8 -151 -45 -202 -73 -167 -91
-304 -250 -363 -422 -9 -25 -50 -144 -92 -265 -42 -121 -78 -224 -79 -230 -2
-5 -5 -17 -8 -25 -3 -8 -18 -49 -32 -91 l-27 -76 -177 0 c-97 -1 -187 -1 -198
-2 -18 -1 -22 -7 -21 -38 0 -21 -1 -45 -2 -53 -1 -14 -39 -16 -309 -15 -295 1
-309 2 -356 23 -97 44 -165 117 -193 211 -18 60 -20 769 -2 834 26 96 90 170
189 216 l55 26 481 1 481 1 51 28 c107 58 146 179 93 287 -14 28 -132 153
-346 368 -374 373 -378 379 -379 514 -1 137 9 152 323 466 220 221 280 275
324 295 98 45 195 43 295 -7 28 -14 157 -135 372 -350 218 -218 341 -333 365
-344 114 -47 229 -3 286 108 22 42 22 50 23 523 l1 481 33 67 c36 73 91 127
162 160 37 18 71 22 195 27 224 8 624 2 675 -11z m-292 -2036 c36 -21 87 -50
112 -65 25 -15 56 -33 70 -40 131 -72 310 -182 330 -203 22 -24 24 -34 25
-138 1 -62 -2 -116 -6 -122 -5 -7 -232 -9 -651 -8 -353 0 -646 1 -649 2 -12 2
-3 236 11 257 7 12 52 44 99 72 354 207 459 267 494 282 48 22 71 16 165 -37z"/>
<path d="M3395 5682 c-3 -3 -5 -52 -5 -109 l0 -103 110 0 110 0 0 109 0 110
-105 -1 c-58 -1 -107 -3 -110 -6z"/>
<path d="M1970 4920 l0 -109 110 1 110 2 0 108 0 108 -110 0 -110 0 0 -110z"/>
<path d="M4811 4921 l1 -109 109 0 109 0 0 109 0 109 -110 0 -109 0 0 -109z"/>
<path d="M1094 3500 l0 -110 108 0 108 0 1 43 c0 23 1 71 1 107 l0 65 -109 3
-109 3 0 -111z"/>
<path d="M5689 3565 c0 -25 -1 -61 -1 -80 0 -19 1 -48 1 -65 l1 -30 108 0 108
0 1 110 0 110 -108 0 -109 0 -1 -45z"/>
</g>
</svg>
