<svg width="48" height="34" viewBox="0 0 48 34" fill="none" xmlns="http://www.w3.org/2000/svg">
<path d="M45.0001 0.666748H3.00008C2.38124 0.666748 1.78775 0.912581 1.35017 1.35017C0.912581 1.78775 0.666748 2.38124 0.666748 3.00008V12.3334H2.75041C5.07441 12.3334 7.23042 13.9224 7.60375 16.2161C7.71748 16.8858 7.68369 17.5723 7.50473 18.2277C7.32578 18.883 7.00596 19.4914 6.56762 20.0104C6.12927 20.5294 5.58295 20.9465 4.96677 21.2326C4.3506 21.5187 3.67942 21.6668 3.00008 21.6667H0.666748V31.0001C0.666748 31.6189 0.912581 32.2124 1.35017 32.65C1.78775 33.0876 2.38124 33.3334 3.00008 33.3334H45.0001C45.6189 33.3334 46.2124 33.0876 46.65 32.65C47.0876 32.2124 47.3334 31.6189 47.3334 31.0001V21.6667H45.0001C44.3207 21.6668 43.6496 21.5187 43.0334 21.2326C42.4172 20.9465 41.8709 20.5294 41.4325 20.0104C40.9942 19.4914 40.6744 18.883 40.4954 18.2277C40.3165 17.5723 40.2827 16.8858 40.3964 16.2161C40.7698 13.9224 42.9258 12.3334 45.2498 12.3334H47.3334V3.00008C47.3334 2.38124 47.0876 1.78775 46.65 1.35017C46.2124 0.912581 45.6189 0.666748 45.0001 0.666748ZM17.0001 10.0001C17.6189 10.0001 18.2124 10.2459 18.65 10.6835C19.0876 11.1211 19.3334 11.7146 19.3334 12.3334C19.3334 12.9523 19.0876 13.5457 18.65 13.9833C18.2124 14.4209 17.6189 14.6667 17.0001 14.6667C16.3812 14.6667 15.7878 14.4209 15.3502 13.9833C14.9126 13.5457 14.6667 12.9523 14.6667 12.3334C14.6667 11.7146 14.9126 11.1211 15.3502 10.6835C15.7878 10.2459 16.3812 10.0001 17.0001 10.0001ZM15.1334 24.9334L29.1334 6.26675L32.8667 9.06675L18.8667 27.7334L15.1334 24.9334ZM31.0001 24.0001C30.3812 24.0001 29.7878 23.7542 29.3502 23.3167C28.9126 22.8791 28.6667 22.2856 28.6667 21.6667C28.6667 21.0479 28.9126 20.4544 29.3502 20.0168C29.7878 19.5792 30.3812 19.3334 31.0001 19.3334C31.6189 19.3334 32.2124 19.5792 32.65 20.0168C33.0876 20.4544 33.3334 21.0479 33.3334 21.6667C33.3334 22.2856 33.0876 22.8791 32.65 23.3167C32.2124 23.7542 31.6189 24.0001 31.0001 24.0001Z" fill="white"/>
</svg>
